<?xml version="1.0" encoding="UTF-8"?>
<svg id="Layer_1" data-name="Layer 1" xmlns="http://www.w3.org/2000/svg" viewBox="0 0 50 50">
  <defs>
    <style>
      .cls-1, .cls-2 {
        fill: #068287;
      }

      .cls-2 {
        opacity: .4;
      }
    </style>
  </defs>
  <rect class="cls-2" x="5" y="5" width="40" height="40" rx="2.6" ry="2.6"/>
  <g>
    <polygon class="cls-1" points="15.81 16.94 7.75 25 7.75 25 7.75 25 15.81 33.06 18.25 30.61 12.64 25 18.25 19.39 15.81 16.94"/>
    <polygon class="cls-1" points="42.25 25 34.19 16.94 31.75 19.39 37.36 25 31.75 30.61 34.19 33.06 42.25 25 42.25 25 42.25 25"/>
    <polygon class="cls-1" points="20.23 38.5 23.98 38.5 29.77 11.5 26.02 11.5 20.23 38.5"/>
    <rect class="cls-1" x="8.47" y="23.27" width="3.45" height="3.45" transform="translate(-14.69 14.53) rotate(-45)"/>
    <rect class="cls-1" x="38.08" y="23.27" width="3.45" height="3.45" transform="translate(-6.02 35.47) rotate(-45)"/>
  </g>
</svg>