<?xml version="1.0" encoding="UTF-8"?>
<svg id="Layer_1" data-name="Layer 1" xmlns="http://www.w3.org/2000/svg" viewBox="0 0 50 50">
  <defs>
    <style>
      .cls-1, .cls-2 {
        fill: #4d2db4;
      }

      .cls-2 {
        opacity: .4;
      }
    </style>
  </defs>
  <rect class="cls-2" x="5" y="5" width="40" height="40" rx="2.6" ry="2.6"/>
  <path class="cls-1" d="M22.26,11.1l-.66,3.41c-1.11.42-2.13,1-3.03,1.74l-3.27-1.13-3.15,5.46,2.62,2.28c-.09.57-.15,1.15-.15,1.75s.06,1.18.15,1.75l-2.62,2.28,3.15,5.46,3.27-1.13c.9.74,1.92,1.32,3.03,1.74l.66,3.41h6.3l.66-3.41c1.11-.42,2.13-1,3.03-1.74l3.27,1.13,3.15-5.46-2.62-2.28c.09-.57.15-1.15.15-1.75s-.06-1.18-.15-1.75l2.62-2.28-3.15-5.46-3.27,1.13c-.9-.74-1.92-1.32-3.03-1.74l-.66-3.41h-6.3ZM25.4,19.2c2.98,0,5.4,2.42,5.4,5.4s-2.42,5.4-5.4,5.4-5.4-2.42-5.4-5.4,2.42-5.4,5.4-5.4Z"/>
</svg>