<?xml version="1.0" encoding="UTF-8"?>
<svg id="Layer_2" data-name="Layer 2" xmlns="http://www.w3.org/2000/svg" viewBox="0 0 54.17 10.61">
  <defs>
    <style>
      .cls-1 {
        fill: #fff;
      }
    </style>
  </defs>
  <g id="Layer_1-2" data-name="Layer 1">
    <g>
      <path class="cls-1" d="M4.74,1.65c.27-.08.42.23.56.27,1.13.32,1.38-1.54-.11-1.55-2.09-.01-4.25,4.86-3.35,6.46.77,1.38,2.43-.86,2.5-1.78-.07-.34-1.07-.55-.52-.76.68-.25,2.21-.13,2.92.1l.92-3.03-.37-.62,1.92-.55-1,3.46c3.31-1.81,1.42,1.54,1.17,2.91-.04.22-.03.56.19.55.25,0,1.85-2.38,1.74-2.84.12-.28-.76-.31-.19-.53.21-.08,1.55-.34,1.64-.27l-1.07,3.2c.75,1,1.75-1.6,1.86-2.15.1-.48-.28-.44-.25-.86.36.18,1.74-.55,1.64.09-.12.77-.86,2.06-1.06,2.96-.27,1.19,1.5-.82,1.6-1,.23-.41.24-1.23.55-1.68l-.73-.09.88-.31c.21-1.28,1.35-3.84,2.96-3.36s.43,3.44-.52,1.69c.05-.69.92-.66.88-.76l-.91-.38c-.43.24-1.39,2.72-1.27,2.84l1.75-.38.35.39c.64-.49,1.77-.59,1.55.44-.23,1.09-1.72,1.09-1.09.01.27-.47.17-.49-.19-.19-.99.85-1.35,2.9-1.84,4.08l-1.16.03,1.18-4.01-.7.03c-.8,1.64-1.55,6.38-3.77,6.55-.69.05-1.31-.08-1.36-.85-.1-1.66,1.62-1.39,1.26-.36-.14.4-.89.13-.71.56.14.35.43.28.72.18.97-.33,1.37-2.29,1.64-3.18-.77.72-2.1,1.98-2.37.18-.76,1-2.09,1.54-2.19-.18-.53.52-1.07,1.47-2,1.01-1.33-.66,1.36-3.64.26-3.92-.95-.24-1.7,3.3-1.92,3.99l-1.26.02,1.08-3.21c.11-.35-.19-.31-.41-.22-1.36.55-1.35,5.12-3.8,5.87-1.01.31-2.55.15-2.31-1.2s1.99-.86,1.61-.32c-.83.02-1.11,1.35-.11,1.28s1.89-2,1.93-2.92c-1.71,1.44-3.29.68-3.29-1.55S2.25.33,4.66.03c1.42-.18,2.38.54,2.04,2.04s-2.82,1.44-1.97-.42Z"/>
      <path class="cls-1" d="M44.86,1.29l-.49-.52c-.84-.23-1.54,2.26-1.7,2.9.73.25,1.18-.49,1.75-.55.4-.04.83.18,1.26.2.38.02,1.09-.46,1,.07-.15.94-2.92,3.03-2.92,3.28,2.75,2.16,2.51-2.23,4.31-3.17.87-.45,1.81.22,2.8-.21-.21,1.13-1.1,2.41-1.1,3.55,0,.59.62.12.82-.1.39-.43,2.02-5.07,1.94-5.53-.03-.18-.58,0-.38-.48l2-.55c.21.28-2.06,5.68-2.19,6.66-.07.54.5.16.72-.01.39-.32.43-.6.65-.99.4.31.21.28.05.6-.5,1-2.16,2.55-2.7.86-.8.67-2.04,1.35-2.19-.18-.11-.11-1.86,2.22-2.19,0-.52.26-.79.94-1.41,1.06-.88.18-1.21-.49-1.8-.52-.48-.03-.56.4-.98.37-.05-.28.03-.42.17-.65.66-1.01,2.36-1.87,3.11-2.91l-1.64-.19c-.5.33-.46.91-.65,1.38-.12.29.02.45-.45.36l.55-1.91-.62-.1c-1.12,1.82-1.48,6.87-4.39,6.56-1.26-.14-.94-1.92-.19-2,.92-.1.89,1.25-.09,1.11-.05.21.11.49.29.54,1.51.38,2.55-5.14,3.17-6.1l-.73-.18.88-.31c.25-1.17.99-3.18,2.36-3.4,1.47-.24,2.09,2.03.53,2.31-.84-.42-.35-1.31.43-1.25ZM48.27,6.88c.31-.28.79-1.47.91-1.91.08-.26.41-1.01-.04-1.13-.92-.24-1.84,2.55-1.55,3.28.25.03.49-.08.67-.24Z"/>
      <path class="cls-1" d="M27.35,3.11v.55c3.03-1.88,1.69,1.65,1.09,3.19l.45.28c.42-.1.44-1.57,1.01-1.18-.18,1.78-3.24,3.36-2.66.62.09-.45,1.31-2.38.55-2.54-.84-.18-1.79,3.31-1.93,3.99-.06.05-.97.06-1.14.02-.15-.04-.1-.37-.21-.37-.48.01-1.56,1.15-1.73-.54-2.71,2.55-2.67-.93-1.24-2.8,1.31-1.7,1.85-.58,3.61-1.03-.21,1.13-1.1,2.41-1.1,3.55,0,.24-.03.36.28.27.94-.27,1.21-2.21,1.56-3.02l-.37-.35,1.82-.64ZM22.55,6.88c.31-.28.79-1.47.91-1.91.08-.26.41-1.01-.04-1.13-.92-.24-1.84,2.55-1.55,3.28.25.03.49-.08.67-.24Z"/>
      <path class="cls-1" d="M36.11,8.04c-.03-.65.7-.22,1.18-.74.33-.35.52-1.2.83-1.63l-1.46-.1c-.91,1.16-2.7,3.39-4.37,2.36-1.2-.74-.58-2.91.71-3.27.23-.06,1.82-.43,1.92-.43.51-.01,1.25.52,1.73.71.8-1.48,2.64-4.64,4.47-4.75.28-.02.32-.03.27.28l-1.82,4.38c.04.78.59-.44.91.18-.77.61-1.46.72-1.6,1.87-.12.97.5.43.51,1.14h-3.28ZM38.28,5.29l1.47-4c-.71.83-2.36,2.62-2.73,3.56-.16.41,1.01.46,1.26.44ZM33.92,4.94c-1.75-.17-2.46,2.45-.45,2.39,1.22-.04,1.84-.98,2.64-1.75-.72-.26-1.52.02-2.19.27v-.91Z"/>
    </g>
  </g>
</svg>